<svg width="174" height="118" viewBox="0 0 174 118" fill="none" xmlns="http://www.w3.org/2000/svg">
<path d="M160.516 117.271C152.386 117.271 147.565 113.116 147.196 107.132H154.969C154.969 109.126 156.076 111.782 160.885 111.947C164.218 111.947 166.063 109.952 166.063 108.453C165.694 106.128 162.729 105.963 159.778 105.455C156.445 104.972 153.862 104.298 152.005 103.473C149.422 102.138 147.933 99.3051 147.933 96.3193C147.933 90.9958 152.386 86.8411 160.147 86.8411C167.551 86.8411 172.36 90.6654 172.716 96.4845H165.325C165.325 94.998 164.956 92.495 160.516 92.495C157.551 92.495 155.707 92.9905 155.338 95.1504C155.338 98.1489 161.623 97.9838 166.432 99.1399C170.872 100.309 173.836 103.129 173.836 107.132C173.836 114.45 167.92 117.271 160.516 117.271Z" fill="#A2A2A2"/>
<path d="M18.8679 68.1707L44.3888 53.3689L58.078 76.8231H23.6769" fill="#A2A2A2"/>
<path d="M72.5339 116.388V86.7844V116.388Z" fill="#A2A2A2"/>
<path d="M72.5339 116.388V86.7844" stroke="#A2A2A2" stroke-width="12.8875"/>
<path d="M7.02269 102.025C7.02269 106.675 11.0938 110.499 15.5212 110.499C20.3429 110.499 24.0324 106.675 24.0324 102.025C24.0324 97.5397 20.3429 93.5502 15.5212 93.5502C11.0938 93.5502 7.02269 97.5397 7.02269 102.025ZM15.1522 117.322C7.02269 117.322 0 110.499 0 102.025C0 93.5502 7.02269 86.8925 15.1522 86.8925C18.4855 86.8925 21.4497 87.7311 24.0324 89.548V87.2229H31.4367V116.649H24.0324V114.819C21.8187 116.484 18.4855 117.322 15.1522 117.322Z" fill="#A2A2A2"/>
<path d="M113.931 76.8166L78.4231 14.9669L103.944 0L148.331 76.8166" fill="#A2A2A2"/>
<path d="M41.0544 102.025C41.0544 106.675 44.7566 110.499 49.5656 110.499C53.993 110.499 58.0768 106.675 58.0768 102.025C58.0768 97.5397 53.993 93.5502 49.5656 93.5502C44.7566 93.5502 41.0544 97.5397 41.0544 102.025ZM49.1967 117.322C40.6855 117.322 34.0317 110.499 34.0317 102.025C34.0317 93.5502 40.6855 86.8925 49.1967 86.8925C52.5172 86.8925 55.4815 87.7311 58.0768 89.548V77.0839H65.4685V116.649H58.0768V114.819C55.4815 116.484 52.5172 117.322 49.1967 117.322Z" fill="#A2A2A2"/>
<path d="M48.832 41.7349L74.7218 27.1109L103.207 76.8147H76.1976V84.133H68.806V76.8147" fill="#A2A2A2"/>
<path d="M169.04 84.3636C167.182 84.3636 165.338 82.6992 165.338 80.7045C165.338 78.7097 167.182 77.0453 169.04 77.0453C171.253 77.0453 172.742 78.7097 172.742 80.7045C172.742 82.6992 171.253 84.3636 169.04 84.3636ZM169.04 77.5535C167.182 77.5535 166.075 79.0401 166.075 80.7045C166.075 82.3689 167.182 83.8681 169.04 83.8681C170.884 83.8681 171.991 82.3689 171.991 80.7045C171.991 79.0401 170.884 77.5535 169.04 77.5535Z" fill="#A2A2A2"/>
<path d="M169.803 82.7123L169.065 81.0479H168.327V82.7123H167.767V78.7228H169.434C169.803 78.7228 170.541 79.231 170.541 79.8917C170.541 80.5524 170.172 80.8827 169.803 81.0479L170.541 82.7123H169.803ZM169.065 79.231H168.327V80.5524H169.065C169.803 80.5524 169.803 80.3872 169.803 79.8917C169.803 79.5486 169.803 79.231 169.065 79.231Z" fill="#A2A2A2"/>
<path d="M120.187 102.025C120.187 106.675 123.889 110.499 128.698 110.499C133.138 110.499 137.196 106.675 137.196 102.025C137.196 97.5397 133.138 93.5502 128.698 93.5502C123.889 93.5502 120.187 97.5397 120.187 102.025ZM128.316 117.322C119.818 117.322 113.164 110.499 113.164 102.025C113.164 93.5502 119.818 86.8925 128.316 86.8925C131.649 86.8925 134.614 87.7311 137.196 89.548V87.2229H144.232V116.649H137.196V114.819C134.614 116.484 131.649 117.322 128.316 117.322Z" fill="#A2A2A2"/>
<path d="M86.18 102.025C86.18 106.675 90.2512 110.499 94.6912 110.499C99.5003 110.499 103.202 106.675 103.202 102.025C103.202 97.5397 99.5003 93.5502 94.6912 93.5502C90.2512 93.5502 86.18 97.5397 86.18 102.025ZM103.202 77.0839H110.594V116.649H103.202V114.819C100.976 116.484 98.0117 117.322 94.6912 117.322C86.18 117.322 79.1573 110.499 79.1573 102.025C79.1573 93.5502 86.18 86.8925 94.6912 86.8925C98.0117 86.8925 100.976 87.7311 103.202 89.548V77.0839Z" fill="#A2A2A2"/>
</svg>
