<svg width="162" height="100" viewBox="0 0 162 100" fill="none" xmlns="http://www.w3.org/2000/svg">
<path fill-rule="evenodd" clip-rule="evenodd" d="M158.991 83.4847H159.497C159.756 83.4847 160.037 83.5348 160.037 83.8611C160.037 84.2504 159.728 84.2676 159.391 84.2676H158.991V83.4847ZM158.61 85.6331H158.991V84.574H159.396L160.065 85.6331H160.476L159.772 84.5465C160.137 84.5094 160.419 84.322 160.419 83.8783C160.419 83.405 160.145 83.1756 159.559 83.1756H158.609V85.6331H158.61ZM157.693 84.3947C157.693 83.3899 158.446 82.6118 159.429 82.6118C160.402 82.6118 161.157 83.3894 161.157 84.3947C161.157 85.4237 160.402 86.2012 159.429 86.2012C158.446 86.2012 157.693 85.4237 157.693 84.3947ZM157.31 84.3947C157.31 85.603 158.277 86.5108 159.429 86.5108C160.577 86.5108 161.538 85.603 161.538 84.3947C161.538 83.2079 160.576 82.3033 159.429 82.3033C158.277 82.3033 157.31 83.2079 157.31 84.3947ZM133.757 81.2684V84.7829H124.954V85.8997V87.2232V88.7535H125.962H129.87H131.001C133.057 88.7535 134.722 90.4185 134.722 92.4748V93.7984V94.8301V95.7395C134.722 97.7959 133.057 99.4608 131.001 99.4608H120.773V95.9468H130.877V94.8301V93.7984V92.2675H129.87H125.962H124.83C122.775 92.2675 121.109 90.6026 121.109 88.5462V87.2232V85.8997V84.9897C121.109 82.9365 122.775 81.2684 124.83 81.2684H133.757ZM153.934 99.4614H145.007C142.951 99.4614 141.285 97.7965 141.285 95.7401V93.3423V87.3875V84.9897C141.285 82.9365 142.951 81.2684 145.007 81.2684H153.934V84.7829H145.13V87.3875V88.8354H153.934V92.3499H145.13V93.3418V95.9468H153.934V99.4614ZM93.6503 99.4614H84.7232C82.6689 99.4614 81.0024 97.7965 81.0024 95.7401V93.3423V87.3875V84.9897C81.0024 82.9365 82.6689 81.2684 84.7232 81.2684H93.6503V84.7829H84.8481V87.3875V88.8354H93.6503V92.3499H84.8481V93.3418V95.9468H93.6503V99.4614ZM42.2972 81.2684H44.2411H50.7732C52.8285 81.2684 54.4945 82.9365 54.4945 84.9897V99.4614H50.6493V84.7829H44.2411V99.4614H40.3959V81.2684H42.2972ZM104.4 88.8359H111.219V88.1332V85.4883V84.7829H104.4V88.8359ZM115.063 85.4883V88.1332V88.6292C115.063 90.5331 113.635 92.1012 111.793 92.323L115.398 99.4614H111.07L107.925 92.3505H104.4V99.4614H100.556V81.2684H102.417H104.401H111.344C113.398 81.2684 115.064 82.9365 115.064 84.9897V85.4883H115.063ZM63.3021 81.2684L67.6017 96.4029L72.1501 81.2684H76.5326L70.6618 99.4614H64.6251L59.0019 81.2684H63.3021ZM0 84.9897C0 82.9365 1.66654 81.2684 3.72077 81.2684H13.272V84.7829H3.84569V95.9468H13.2725V99.4608H3.72131C1.66708 99.4608 0.000539193 97.7959 0.000539193 95.7395V84.9897H0ZM19.1434 84.9897C19.1434 82.9365 20.8099 81.2684 22.8647 81.2684H30.8027C32.8585 81.2684 34.5245 82.9365 34.5245 84.9897V95.7401C34.5245 97.7965 32.8585 99.4614 30.8027 99.4614H22.8647C20.8099 99.4614 19.1434 97.7965 19.1434 95.7401V84.9897ZM22.9891 84.7835H30.6799V95.9474H22.9891V84.7835ZM78.2062 13.4373L83.1508 28.6569H99.1534L86.2071 38.0612L91.1524 53.2835L78.2062 43.8765L65.2599 53.2835L70.2046 38.0612L57.2589 28.6569H73.2609L78.2062 13.4373ZM108.037 34.9375C108.037 51.4134 94.6815 64.7678 78.2056 64.7678C61.7298 64.7678 48.3732 51.4128 48.3732 34.9375C48.3732 18.4622 61.7303 5.10461 78.2056 5.10461C94.6809 5.10461 108.037 18.4622 108.037 34.9375ZM78.2062 0C58.9109 0 43.2692 15.6407 43.2692 34.9381C43.2692 54.2328 58.9109 69.8735 78.2062 69.8735C97.5014 69.8735 113.143 54.2328 113.143 34.9381C113.142 15.6402 97.5014 0 78.2062 0Z" fill="#A2A2A2"/>
</svg>
