<svg width="47" height="47" viewBox="0 0 47 47" fill="none" xmlns="http://www.w3.org/2000/svg">
<path d="M47 23.5001C47 10.5214 36.4787 5.72205e-05 23.5 5.72205e-05C10.5213 5.72205e-05 0 10.5214 0 23.5001C0 35.2296 8.59361 44.9516 19.8281 46.7146V30.293H13.8613V23.5001H19.8281V18.3227C19.8281 12.433 23.3365 9.17974 28.7044 9.17974C31.2755 9.17974 33.9648 9.63873 33.9648 9.63873V15.4219H31.0015C28.0823 15.4219 27.1719 17.2334 27.1719 19.0918V23.5001H33.6895L32.6476 30.293H27.1719V46.7146C38.4064 44.9516 47 35.2296 47 23.5001Z" fill="white"/>
</svg>
