<svg width="47" height="47" viewBox="0 0 47 47" fill="none" xmlns="http://www.w3.org/2000/svg">
<path d="M23.5022 0C17.1199 0 16.319 0.0279067 13.8123 0.14198C11.3105 0.256542 9.60279 0.652615 8.10856 1.23375C6.56293 1.83398 5.25182 2.6369 3.94559 3.94359C2.63839 5.2498 1.83547 6.56091 1.23327 8.10603C0.650663 9.60073 0.254096 11.3089 0.141491 13.8097C0.0293751 16.3163 0 17.1178 0 23.5C0 29.8822 0.0283966 30.6807 0.141981 33.1874C0.257034 35.6892 0.653111 37.3968 1.23376 38.891C1.83449 40.4366 2.63741 41.7478 3.94412 43.054C5.24986 44.3611 6.56097 45.166 8.10563 45.7663C9.60083 46.3474 11.309 46.7435 13.8103 46.858C16.317 46.9721 17.1175 47 23.4993 47C29.882 47 30.6806 46.9721 33.1872 46.858C35.689 46.7435 37.3987 46.3474 38.8939 45.7663C40.439 45.166 41.7482 44.3611 43.0539 43.054C44.3611 41.7478 45.164 40.4366 45.7662 38.8915C46.3439 37.3968 46.7405 35.6887 46.858 33.1879C46.9706 30.6812 47 29.8822 47 23.5C47 17.1178 46.9706 16.3168 46.858 13.8102C46.7405 11.3084 46.3439 9.60073 45.7662 8.10652C45.164 6.56091 44.3611 5.2498 43.0539 3.94359C41.7467 2.63641 40.4395 1.83349 38.8924 1.23375C37.3943 0.652615 35.6856 0.256542 33.1838 0.14198C30.6771 0.0279067 29.8791 0 23.4949 0H23.5022ZM21.394 4.2349C22.0197 4.23392 22.7179 4.2349 23.5022 4.2349C29.7768 4.2349 30.5205 4.25742 32.9983 4.37002C35.2895 4.47479 36.5331 4.85765 37.3615 5.1793C38.4581 5.60524 39.24 6.11441 40.062 6.93691C40.8846 7.75941 41.3937 8.54274 41.8206 9.63941C42.1423 10.4668 42.5257 11.7103 42.6299 14.0016C42.7425 16.4789 42.767 17.2231 42.767 23.4946C42.767 29.7662 42.7425 30.5103 42.6299 32.9876C42.5252 35.2789 42.1423 36.5224 41.8206 37.3498C41.3947 38.4465 40.8846 39.2274 40.062 40.0494C39.2395 40.8719 38.4586 41.3811 37.3615 41.807C36.5341 42.1301 35.2895 42.512 32.9983 42.6168C30.5209 42.7294 29.7768 42.7538 23.5022 42.7538C17.2271 42.7538 16.4835 42.7294 14.0061 42.6168C11.7149 42.511 10.4713 42.1282 9.64244 41.8065C8.54577 41.3806 7.76242 40.8714 6.93992 40.0489C6.11741 39.2264 5.60824 38.445 5.18131 37.3479C4.85965 36.5205 4.47631 35.2769 4.37203 32.9857C4.25942 30.5084 4.2369 29.7642 4.2369 23.4887C4.2369 17.2133 4.25942 16.473 4.37203 13.9957C4.4768 11.7045 4.85965 10.4609 5.18131 9.63255C5.60726 8.53588 6.11741 7.75255 6.93992 6.93005C7.76242 6.10755 8.54577 5.59839 9.64244 5.17147C10.4708 4.84834 11.7149 4.46647 14.0061 4.36121C16.174 4.26329 17.0142 4.23392 21.394 4.22902V4.2349ZM36.0464 8.13687C34.4895 8.13687 33.2264 9.39853 33.2264 10.9559C33.2264 12.5128 34.4895 13.7759 36.0464 13.7759C37.6033 13.7759 38.8665 12.5128 38.8665 10.9559C38.8665 9.39902 37.6033 8.1359 36.0464 8.1359V8.13687ZM23.5022 11.4318C16.8374 11.4318 11.4338 16.8353 11.4338 23.5C11.4338 30.1647 16.8374 35.5658 23.5022 35.5658C30.167 35.5658 35.5686 30.1647 35.5686 23.5C35.5686 16.8353 30.1665 11.4318 23.5017 11.4318H23.5022ZM23.5022 15.6667C27.8282 15.6667 31.3356 19.1736 31.3356 23.5C31.3356 27.826 27.8282 31.3333 23.5022 31.3333C19.1757 31.3333 15.6688 27.826 15.6688 23.5C15.6688 19.1736 19.1757 15.6667 23.5022 15.6667Z" fill="white"/>
</svg>
