<svg width="172" height="62" viewBox="0 0 172 62" fill="none" xmlns="http://www.w3.org/2000/svg">
<path d="M18.9178 61.0969C13.8078 60.8939 9.62702 59.4956 6.35802 56.8986C5.73414 56.4025 4.24751 54.915 3.74876 54.2876C2.42313 52.6208 1.52189 50.9985 0.920762 49.1986C-0.928988 43.6581 0.0230122 36.3878 3.64376 28.4086C6.74389 21.5775 11.5275 14.8024 19.8733 5.4189C21.1026 4.03815 24.7636 0 24.7873 0C24.796 0 24.5965 0.345631 24.3454 0.766506C22.1754 4.40126 20.3186 8.68262 19.3071 12.3891C17.6823 18.3365 17.8783 23.4404 19.8811 27.398C21.2628 30.1245 23.6314 32.4861 26.2949 33.7916C30.9578 36.0763 37.7845 36.2653 46.1215 34.3446C46.6955 34.2116 75.1383 26.6613 109.328 17.5656C143.518 8.46914 171.496 1.03251 171.5 1.03864C171.51 1.04651 92.0678 35.0403 50.8281 52.6759C44.2971 55.468 42.5506 56.1733 39.4803 57.2513C31.6315 60.0075 24.6009 61.3226 18.9178 61.0969Z" fill="#A2A2A2"/>
</svg>
