<svg width="175" height="87" viewBox="0 0 175 87" fill="none" xmlns="http://www.w3.org/2000/svg">
<g clip-path="url(#clip0)">
<path d="M94.3186 0.296867C93.7459 0.3815 93.1953 2.48804 92.0885 3.58637C91.2801 4.37747 90.2691 4.32964 89.7332 5.30839C89.5288 5.67266 89.595 6.29818 89.3648 6.89611C88.9118 8.09563 87.3225 8.20235 87.3225 9.50858C87.317 10.9197 88.6466 11.1883 89.8013 12.191C90.7018 12.9949 90.7883 13.5505 91.8785 13.9424C92.8104 14.257 94.1952 13.2249 95.4419 13.5965C96.464 13.9001 97.4437 14.119 97.6757 15.1695C97.8802 16.1391 97.661 17.6385 96.4198 17.4656C96.0018 17.4177 94.186 16.8088 91.9596 17.0461C89.2691 17.3515 86.2011 18.2272 85.9009 21.2242C85.7352 22.8965 87.8087 24.8706 89.8105 24.4695C91.1935 24.1991 90.5398 22.5672 91.2911 21.7761C92.28 20.7606 97.8802 25.3177 103.083 25.3177C105.274 25.3177 106.904 24.7639 108.522 23.0713C108.673 22.9407 108.858 22.6647 109.092 22.6463C109.313 22.6647 109.697 22.8818 109.824 22.9738C114.014 26.3388 117.183 33.0907 132.588 33.168C134.755 33.1808 137.221 34.2148 139.238 36.0509C141.035 37.7103 142.085 40.2952 143.107 42.915C144.65 46.8466 147.41 50.6715 151.6 54.9269C151.828 55.155 155.278 57.8337 155.554 58.0324C155.596 58.0637 155.85 58.6671 155.762 59.0038C155.661 61.5574 155.289 68.9772 160.826 69.3138C162.18 69.3819 161.826 68.4307 161.826 67.7776C161.822 66.4843 161.587 65.2001 162.268 63.8755C163.2 62.056 160.29 61.2189 160.375 57.2836C160.436 54.3492 157.968 54.8496 156.718 52.6143C155.996 51.3191 155.355 50.6329 155.401 49.0488C155.683 40.1352 153.502 34.2773 152.416 32.8386C151.567 31.7532 150.865 31.3227 151.64 30.8204C156.263 27.7683 157.311 24.9332 157.311 24.9332C159.769 19.1618 161.979 13.8909 165.027 11.5691C165.64 11.0889 167.214 9.91517 168.179 9.45523C171.025 8.11588 172.52 7.3027 173.347 6.50056C174.652 5.22929 175.687 2.5745 174.433 0.966545C172.875 -1.01856 170.181 0.556282 168.993 1.26091C160.496 6.29819 159.244 15.1843 156.301 20.2878C153.953 24.3647 150.136 27.3598 146.722 27.6045C144.166 27.794 141.405 27.277 138.659 26.072C131.98 23.1468 128.326 19.3697 127.461 18.7019C125.667 17.3184 111.738 3.65445 100.449 3.097C100.449 3.097 99.0477 0.29319 98.696 0.249039C97.871 0.142326 97.0257 1.92139 96.4198 2.12928C95.8508 2.31694 94.8932 0.203041 94.3186 0.296867Z" fill="#A2A2A2"/>
<path d="M44.6281 81.8408C43.5655 81.815 42.6631 80.9448 42.6631 79.8685L42.6668 44.6922H31.0614V83.4653C31.0614 85.3676 32.6028 86.9167 34.4941 86.9167H54.775C56.6792 86.9167 58.2021 85.3676 58.2021 83.4653V44.6922H46.6078L46.5986 79.8685C46.5986 80.9448 45.6962 81.815 44.6281 81.8408Z" fill="#A2A2A2"/>
<path d="M83.4791 44.6922H65.9181C63.8372 44.6922 62.1448 46.3811 62.1448 48.4785V86.9167H73.7613V51.6576C73.7687 50.5776 74.6434 49.7222 75.7244 49.7222C76.8072 49.7222 77.6782 50.5574 77.7022 51.6282V86.9167H89.2689V51.6282C89.2837 50.5574 90.1529 49.7222 91.2357 49.7222C92.3075 49.7222 93.1951 50.5776 93.2024 51.6576V86.9167H104.819V48.4785C104.819 46.3811 103.121 44.6922 101.044 44.6922H83.4791Z" fill="#A2A2A2"/>
<path d="M23.3213 76.3068H11.598V86.9167H0V44.6922H23.395C25.4888 44.6922 27.1241 46.3922 27.1241 48.495V72.5003C27.1241 74.6105 25.4244 76.3068 23.3213 76.3068ZM15.5334 51.7312C15.5426 50.5574 14.585 49.7222 13.5685 49.7222H11.598V71.0781H13.5685C14.5924 71.0781 15.5426 70.265 15.5334 69.0949V51.7312Z" fill="#A2A2A2"/>
<path d="M124.29 86.9167V76.316H120.347V86.9167H108.754V48.4785C108.754 46.3811 110.447 44.6922 112.528 44.6922H132.111C134.195 44.6922 135.886 46.3811 135.886 48.4785V86.9167H124.29ZM124.29 71.0855V51.6429C124.262 50.5684 123.397 49.7424 122.314 49.7424C121.242 49.7424 120.358 50.6016 120.347 51.6742V71.0855H124.29Z" fill="#A2A2A2"/>
</g>
<defs>
<clipPath id="clip0">
<rect width="175" height="86.9167" fill="white"/>
</clipPath>
</defs>
</svg>
