<svg width="47" height="34" viewBox="0 0 47 34" fill="none" xmlns="http://www.w3.org/2000/svg">
<path d="M46.0319 5.17896C45.4899 3.1541 43.9026 1.55758 41.8894 1.01243C38.2115 0 23.4999 0 23.4999 0C23.4999 0 8.78827 0 5.11036 0.973488C3.1359 1.51864 1.50988 3.1541 0.967871 5.17896C0 8.87821 0 16.5493 0 16.5493C0 16.5493 0 24.2593 0.967871 27.9196C1.50988 29.9445 3.09719 31.541 5.11036 32.0862C8.82698 33.0986 23.4999 33.0986 23.4999 33.0986C23.4999 33.0986 38.2115 33.0986 41.8894 32.1251C43.9026 31.58 45.4899 29.9834 46.0319 27.9586C46.9998 24.2593 46.9998 16.5882 46.9998 16.5882C46.9998 16.5882 47.0385 8.87821 46.0319 5.17896Z" fill="white"/>
<path d="M31.0493 16.5493L18.8154 9.46231V23.6363L31.0493 16.5493Z" fill="#262626"/>
</svg>
