<svg width="49" height="47" viewBox="0 0 49 47" fill="none" xmlns="http://www.w3.org/2000/svg">
<path d="M18 45.625C19.1736 45.625 20.125 44.6736 20.125 43.5C20.125 42.3264 19.1736 41.375 18 41.375C16.8264 41.375 15.875 42.3264 15.875 43.5C15.875 44.6736 16.8264 45.625 18 45.625Z" stroke="white" stroke-width="2" stroke-linecap="round" stroke-linejoin="round"/>
<path d="M41.375 45.625C42.5486 45.625 43.5 44.6736 43.5 43.5C43.5 42.3264 42.5486 41.375 41.375 41.375C40.2014 41.375 39.25 42.3264 39.25 43.5C39.25 44.6736 40.2014 45.625 41.375 45.625Z" stroke="white" stroke-width="2" stroke-linecap="round" stroke-linejoin="round"/>
<path d="M1 1H9.5L15.195 29.4537C15.3893 30.4321 15.9216 31.3109 16.6985 31.9364C17.4755 32.5618 18.4477 32.8941 19.445 32.875H40.1C41.0973 32.8941 42.0695 32.5618 42.8465 31.9364C43.6234 31.3109 44.1557 30.4321 44.35 29.4537L47.75 11.625H11.625" stroke="white" stroke-width="2" stroke-linecap="round" stroke-linejoin="round"/>
</svg>
