<svg width="495" height="495" viewBox="0 0 495 495" fill="none" xmlns="http://www.w3.org/2000/svg">
<circle cx="247.5" cy="247.5" r="247.5" fill="#D0E8FE" fill-opacity="0.21"/>
<path d="M286.41 82.8235H235.604V112.906H286.41V82.8235Z" fill="#2F2E41"/>
<path d="M185.272 87.674H159.077V78.5398C159.077 75.0662 160.457 71.7349 162.913 69.2787C165.369 66.8225 168.701 65.4426 172.174 65.4426C175.648 65.4426 178.979 66.8225 181.435 69.2787C183.892 71.7349 185.272 75.0662 185.272 78.5398V87.674ZM159.657 87.0941H184.692V78.5398C184.692 75.22 183.373 72.0362 181.025 69.6888C178.678 67.3413 175.494 66.0226 172.174 66.0226C168.855 66.0226 165.671 67.3413 163.323 69.6888C160.976 72.0362 159.657 75.22 159.657 78.5398V87.0941Z" fill="#3F3D56"/>
<path d="M198.224 86.4177V82.8479L131.608 84.6328L129.5 175.053L139.359 187.232L198.224 86.4177Z" fill="#3F3D56"/>
<path d="M210.016 85.1611L137.812 86.8043L139.359 187.232L209.039 179.722L210.016 85.1611Z" fill="#FFD23E"/>
<path d="M271.404 410.539H263.208L259.31 378.927H271.405L271.404 410.539Z" fill="#FFB6B6"/>
<path d="M273.493 418.484L247.067 418.483V418.148C247.068 415.421 248.151 412.804 250.08 410.876C252.009 408.947 254.625 407.863 257.353 407.863H257.354L273.494 407.863L273.493 418.484Z" fill="#2F2E41"/>
<path d="M241.321 410.539H233.126L229.227 378.927H241.323L241.321 410.539Z" fill="#FFB6B6"/>
<path d="M243.411 418.484L216.985 418.483V418.148C216.986 415.421 218.069 412.804 219.998 410.876C221.927 408.947 224.543 407.863 227.271 407.863H227.272L243.412 407.863L243.411 418.484Z" fill="#2F2E41"/>
<path d="M217.253 212.601C217.253 212.601 205.278 238.388 216.096 290.293C226.914 342.199 227.004 399.183 227.004 399.183L243.545 399.453L252.837 276.771L257.702 397.721H273.998L288.36 278.683C288.36 278.683 297.811 225.529 276.735 216.012L217.253 212.601Z" fill="#2F2E41"/>
<path d="M274.569 121.596L238.352 118.258C226.994 126.536 220.62 141.404 221.929 156.745C223.703 177.545 223.103 206.17 208.865 218.605C208.865 218.605 247.67 249.233 282.142 220.176C282.142 220.176 270.354 188.598 278.447 175.987C286.54 163.377 289.46 127.947 274.569 121.596Z" fill="#E4E4E4"/>
<path d="M166.804 70.2C166.693 71.244 166.813 72.2997 167.154 73.2926C167.495 74.2855 168.049 75.1916 168.778 75.947C169.508 76.7024 170.393 77.2888 171.374 77.6648C172.354 78.0408 173.405 78.1973 174.452 78.1233L222.271 122.75L230.842 109.695L181.142 69.9331C180.901 68.182 180.026 66.5801 178.683 65.431C177.34 64.2819 175.622 63.6654 173.855 63.6983C172.087 63.7312 170.394 64.4112 169.094 65.6095C167.795 66.8078 166.98 68.4412 166.804 70.2Z" fill="#FFB6B6"/>
<path d="M213.342 115.856L224.686 104.203C225.009 103.872 225.399 103.614 225.831 103.447C226.262 103.28 226.725 103.208 227.187 103.235C227.649 103.263 228.099 103.39 228.508 103.608C228.916 103.825 229.273 104.128 229.553 104.496L239.388 117.386C241.075 119.048 242.034 121.31 242.056 123.677C242.077 126.044 241.159 128.323 239.503 130.015C237.847 131.706 235.587 132.672 233.22 132.7C230.853 132.728 228.571 131.817 226.875 130.165L213.765 120.714C213.39 120.443 213.078 120.095 212.849 119.692C212.621 119.29 212.482 118.843 212.441 118.382C212.401 117.921 212.461 117.457 212.616 117.021C212.772 116.585 213.019 116.188 213.342 115.856V115.856Z" fill="#E4E4E4"/>
<path d="M344.462 178.877C344.514 177.829 344.337 176.781 343.941 175.809C343.545 174.836 342.941 173.962 342.171 173.249C341.401 172.535 340.484 171.999 339.485 171.678C338.485 171.357 337.427 171.259 336.386 171.391L286.161 129.49L278.329 143.001L330.161 179.94C330.499 181.675 331.461 183.226 332.866 184.299C334.271 185.371 336.021 185.892 337.783 185.761C339.546 185.629 341.2 184.856 342.43 183.588C343.661 182.319 344.384 180.643 344.462 178.877Z" fill="#FFB6B6"/>
<path d="M295.46 135.877L284.78 148.142C284.477 148.491 284.101 148.77 283.68 148.961C283.258 149.152 282.8 149.25 282.338 149.248C281.875 149.246 281.418 149.144 280.998 148.949C280.578 148.755 280.205 148.472 279.905 148.12L269.369 135.796C267.592 134.231 266.508 132.026 266.355 129.663C266.202 127.301 266.992 124.974 268.552 123.193C270.112 121.412 272.314 120.322 274.676 120.163C277.039 120.003 279.368 120.787 281.153 122.342L294.767 131.05C295.157 131.3 295.488 131.63 295.739 132.019C295.989 132.408 296.153 132.847 296.219 133.305C296.284 133.763 296.251 134.23 296.12 134.674C295.989 135.117 295.764 135.528 295.46 135.877Z" fill="#E4E4E4"/>
<path d="M349.565 196.595H329.723V189.676C329.723 187.045 330.768 184.521 332.629 182.661C334.489 180.8 337.013 179.755 339.644 179.755C342.275 179.755 344.798 180.8 346.659 182.661C348.519 184.521 349.565 187.045 349.565 189.676L349.565 196.595ZM330.162 196.156H349.125V189.676C349.125 187.161 348.126 184.75 346.348 182.971C344.57 181.193 342.158 180.194 339.644 180.194C337.129 180.194 334.718 181.193 332.939 182.971C331.161 184.75 330.162 187.161 330.162 189.676V196.156Z" fill="#3F3D56"/>
<path d="M359.376 195.643V192.939L308.916 194.291L307.319 262.782L314.787 272.007L359.376 195.643Z" fill="#3F3D56"/>
<path d="M368.308 194.691L313.616 195.936L314.787 272.007L367.568 266.318L368.308 194.691Z" fill="#FFD23E"/>
<path d="M259.002 112.237C270.816 112.237 280.393 102.66 280.393 90.8454C280.393 79.0311 270.816 69.4536 259.002 69.4536C247.187 69.4536 237.61 79.0311 237.61 90.8454C237.61 102.66 247.187 112.237 259.002 112.237Z" fill="#FFB6B6"/>
<path d="M249.153 81.3115C256.553 88.5636 269.431 89.2586 277.569 82.8452C279.827 90.6353 280.075 98.8708 278.287 106.782C276.5 114.694 272.737 122.023 267.349 128.086C271.876 129.722 277.087 128.646 281.133 126.039C285.179 123.432 288.176 119.451 290.437 115.202C296.035 104.684 297.436 91.8401 293.476 80.6023C289.516 69.3644 280.028 60.0458 268.501 57.0284C256.974 54.011 243.758 57.7383 236.057 66.8303C228.004 76.3377 226.699 90.2686 230.228 102.218C233.757 114.167 241.497 124.429 250.001 133.535C245.916 123.032 243.208 112.044 241.943 100.845C241.51 97.0094 241.257 93.056 242.341 89.3515C243.424 85.6471 246.091 82.1966 249.807 81.1557" fill="#2F2E41"/>
<path d="M378.365 419.744H123.668C123.491 419.744 123.321 419.674 123.196 419.549C123.07 419.423 123 419.253 123 419.076C123 418.899 123.07 418.729 123.196 418.603C123.321 418.478 123.491 418.407 123.668 418.407H378.365C378.542 418.407 378.712 418.478 378.837 418.603C378.963 418.729 379.033 418.899 379.033 419.076C379.033 419.253 378.963 419.423 378.837 419.549C378.712 419.674 378.542 419.744 378.365 419.744Z" fill="#CACACA"/>
<path d="M338.869 361.713H319.027V354.794C319.027 352.163 320.073 349.639 321.933 347.779C323.794 345.918 326.317 344.873 328.948 344.873C331.579 344.873 334.103 345.918 335.963 347.779C337.824 349.639 338.869 352.163 338.869 354.794L338.869 361.713ZM319.467 361.273H338.43V354.794C338.43 352.279 337.431 349.868 335.653 348.089C333.874 346.311 331.463 345.312 328.948 345.312C326.433 345.312 324.022 346.311 322.244 348.089C320.466 349.868 319.467 352.279 319.467 354.794V361.273Z" fill="#CACACA"/>
<path d="M348.68 360.761V358.057L298.221 359.409L296.624 427.9L304.091 437.125L348.68 360.761Z" fill="#CACACA"/>
<path d="M357.612 359.809L302.92 361.054L304.091 437.125L356.872 431.436L357.612 359.809Z" fill="#E4E4E4"/>
</svg>
